<!-- Generated by IcoMoon.io -->
<svg version="1.1" xmlns="http://www.w3.org/2000/svg" width="32" height="32" viewBox="0 0 32 32">
<path d="M28.213 2.667c0.618 0 1.12 0.503 1.12 1.12v24.426c0 0.618-0.503 1.12-1.12 1.12h-24.426c-0.618 0-1.12-0.503-1.12-1.12v-24.426c0-0.618 0.503-1.12 1.12-1.12h24.426zM28.213 1.333h-24.426c-1.355 0-2.454 1.099-2.454 2.454v24.426c0 1.355 1.099 2.454 2.454 2.454h24.426c1.355 0 2.454-1.099 2.454-2.454v-24.426c0-1.355-1.099-2.454-2.454-2.454v0z"></path>
<path d="M18.032 14.367l7.943-9.034h-1.882l-6.9 7.843-5.507-7.843h-6.353l8.329 11.86-8.329 9.473h1.882l7.282-8.284 5.817 8.284h6.353l-8.635-12.299zM15.454 17.298l-7.56-10.576h2.891l13.307 18.625h-2.891l-5.747-8.048z"></path>
</svg>
